<?xml version="1.0" standalone="no"?>
<!DOCTYPE svg PUBLIC "-//W3C//DTD SVG 1.1//EN" "http://www.w3.org/Graphics/SVG/1.1/DTD/svg11.dtd" >
<svg xmlns="http://www.w3.org/2000/svg" xmlns:xlink="http://www.w3.org/1999/xlink" version="1.1">
<metadata>
Created by FontForge 20200314 at Thu Mar 21 16:31:02 2019
 By www-data
Copyright(c)  ibaotu
</metadata>
<defs>
<font id="baotuxiaobaiti" horiz-adv-x="256" >
  <font-face 
    font-family="baotuxiaobaiti"
    font-weight="400"
    font-stretch="normal"
    units-per-em="256"
    panose-1="2 1 6 1 3 1 1 1 1 1"
    ascent="204"
    descent="-52"
    x-height="103"
    cap-height="166"
    bbox="3 -46 248 186"
    underline-thickness="12"
    underline-position="-54"
    unicode-range="U+0041-7269"
  />
<missing-glyph 
 />
    <glyph glyph-name=".notdef" 
 />
    <glyph glyph-name="A" unicode="A" horiz-adv-x="147" 
d="M31 -1l-9 2q-4 1 -8 5q-7 3 -9 8q-1 3 0 7l48 141q2 5 6 5q3 1 10 1q8 0 13 -1q4 0 6 -5h2q4 0 6 -5l46 -137l1 -5q0 -6 -8 -11q-6 -4 -14 -4h-5q-4 0 -6 5h-2q-4 0 -6 5l-16 51l-23 -2l-17 -55q-1 -3 -6 -5h-1q-4 -1 -8 0zM32 10l19 60l31 2v5q0 10 -5 16l-18 -2l11 43
l38 -123h5q6 0 11 3t5 6l-47 141q-5 1 -13 1q-7 0 -10 -1l-49 -144q1 -3 6 -5l11 -3z" />
    <glyph glyph-name="B" unicode="B" horiz-adv-x="123" 
d="M84 3q-2 -1 -6 -1h-37q-2 0 -3 1v1q-2 -4 -11 -4q-5 0 -10 3l-3 3q-1 0 -5 2q-4 3 -4 8l-1 95q0 51 5 53q4 3 14 4q11 0 15 -4h1q18 4 47 3q5 0 6 -1q3 -2 4 -4l4 -1q3 -2 4 -4q2 -4 2 -17v-18v-19l1 -3h4q8 -3 8 -32l-1 -28l-3 -33q0 -8 -17 -8q-11 0 -14 4zM77 67
q-24 0 -28 2v-28h26h1q1 6 1 26zM29 12l2 1h41q4 4 3 22h-22q-15 0 -18 -1v59q0 65 -1 66q-1 3 -10 3l-12 -3q-2 -2 -2 -50l1 -95q4 -3 8 -3q8 0 10 1zM101 12l3 34q2 51 -3 53h-10q1 11 1 28v18q0 14 -2 16q-34 1 -50 -3l-1 -10q0 -6 2 -10q14 0 16 1q5 2 13 0q1 -1 1 -12
q0 -15 -1 -27h-3q-16 0 -22 -2q-2 -2 -2 -7q0 -10 1 -12q1 -1 28 -1h10q1 -8 1 -22q0 -12 -1 -17l-2 -26q0 -3 10 -3q11 0 11 2zM67 106q-3 0 -3 6l1 16q-3 -1 -14 -1h-2v-22q5 1 18 1z" />
    <glyph glyph-name="C" unicode="C" horiz-adv-x="122" 
d="M20 8q-6 2 -8 4q-8 11 -8 88q0 40 4 53q0 5 3 6q4 4 14 4q6 0 14 -2q2 2 7 2l50 3q5 0 6 -2l2 -3q5 0 6 -2q5 -5 5 -15q0 -5 -1 -7l-1 -5q-2 -5 -6 -5l-52 -3q-4 0 -5 1l-1 -10q-1 -15 -1 -55q0 -17 1 -22h5q32 2 45 6q7 2 8 -4v-1q7 2 8 -4l3 -13v-5q0 -13 -6 -13
q-35 -4 -60 -4t-32 8zM103 15q2 2 1 11l-3 12q-16 -4 -47 -6q-14 0 -17 3q-3 5 -3 30q0 40 1 55l3 34q-4 3 -13 3q-8 0 -11 -3q-4 -13 -4 -54q0 -74 7 -84q3 -3 18 -5q18 -2 68 4zM99 138l2 8q0 10 -3 14l-55 -3q-1 -1 -1 -9t3 -13z" />
    <glyph glyph-name="D" unicode="D" horiz-adv-x="129" 
d="M17 3l-2 2l-6 3q-4 3 -4 34l-1 69q0 49 5 51q4 3 14 4q11 0 15 -5q2 2 6 2l27 3q13 0 18 -1q8 -1 16 -7q8 -3 12 -9q8 -8 8 -41q0 -8 -2 -42q-3 -38 -14 -53q-7 -8 -19 -10l-38 -2q-4 0 -7 3l-6 -3q-3 -1 -12 -1q-5 0 -10 3zM29 12q5 1 7 3q-1 4 -1 26v51q0 64 -1 65
q-1 3 -10 3l-12 -3q-2 -2 -2 -50l1 -93q4 -3 8 -3q8 0 10 1zM72 42q6 11 8 33q2 44 1 52h-3q-15 0 -26 -3l-3 -1v-36v-47zM82 14q9 2 14 8q10 14 13 50q2 32 2 41q0 33 -7 37q-4 7 -16 9q-4 1 -17 1l-29 -3q-2 -2 -1 -10q0 -5 2 -13q11 4 27 4q13 0 16 -3q2 -2 2 -17l-2 -43
q-2 -24 -10 -39l-34 -2l-3 -8q0 -9 3 -14z" />
    <glyph glyph-name="E" unicode="E" horiz-adv-x="113" 
d="M18 0q-3 2 -4 4l-4 1q-3 2 -4 4q-2 4 -2 17q0 23 1 41q0 40 1 68l3 23q0 8 17 8h7l47 1q17 0 19 -3l1 -2q6 -2 7 -3q2 -4 2 -12q0 -5 -1 -7q-2 -7 -4 -9q-3 -3 -34 -3q-7 -1 -16 -1h-6v-2l-1 -21l16 1h5q18 0 20 -3l1 -2q6 -2 7 -3q2 -4 2 -15q0 -3 -2 -9q-2 -4 -5 -5
q-10 -2 -21 -2q-6 -1 -14 -1h-3q-5 0 -7 1v-28h3q10 0 15 1t16 1h11q4 0 7 -4v-1h1q4 0 7 -4q3 -6 1 -22q0 -6 -6 -6l-34 -3q-27 -2 -44 -1q-4 0 -5 1zM59 11l34 3l1 10q0 6 -2 10h-12q-10 0 -15 -1t-16 -1h-17q-1 3 2 99l1 7h11q9 0 16 1q24 0 30 2q1 1 3 8q0 9 -1 11
q-1 1 -14 1l-47 -1h-7q-11 0 -11 -2l-3 -24q-1 -27 -1 -67q-1 -18 -1 -41q0 -14 2 -16q18 -1 47 1zM48 76q8 0 14 1q14 0 20 2q2 2 2 8q0 9 -1 11q-1 1 -20 1l-21 -1q-4 -4 -4 -12q0 -9 4 -10h6z" />
    <glyph glyph-name="F" unicode="F" horiz-adv-x="111" 
d="M16 5q-8 0 -8 7l-3 24l-1 53l1 55q0 25 10 21q12 1 33 1q26 0 44 -3q4 0 6 -5h2q6 -1 6 -6l1 -10q0 -7 -3 -12q-1 -4 -6 -4h-10q-10 0 -16 1q-4 1 -13 1q-8 0 -12 -1l-1 -22h16q20 -2 22 -4l3 -3l5 -2q2 -1 3.5 -5t1.5 -7q0 -12 -2 -16q-3 -3 -25 -3l-19 1l-4 1v-33
l2 -26q0 -9 -16 -9q-15 0 -17 6zM35 13l-2 26l-1 71q0 15 0.5 21t0.5 7q6 1 16 1q11 0 16 -1t15 -1h11q2 4 2 10l-1 10q-27 4 -79 3q-2 -2 -2 -16l-1 -55l1 -53l3 -24q0 -2 11 -2q10 0 10 3zM82 77q1 2 1 12q0 5 -2 7q-3 1 -20 3h-20q-4 -1 -4 -9q0 -9 4 -13l21 -1
q19 0 20 1z" />
    <glyph glyph-name="G" unicode="G" horiz-adv-x="121" 
d="M27 -1q-5 2 -8 5q-11 3 -13 18q-2 18 -2 46v85q0 5 1 6q2 3 4 4q6 2 11 2q7 0 10 -1q2 2 5 2h7q8 0 15 1h19q12 0 17 -1q5 -2 6 -5h2q5 -2 6 -4q2 -6 2 -9q0 -16 -5 -17q0 -1 -5 -1.5t-16 -1.5l-35 -1v-2l-1 -7v-12q-1 -13 -1 -32v-22l1 -15l11 2l8 2q5 2 8 -2l1 20h-8
q-5 0 -8 4v1v0q-5 0 -8 4q-4 9 -3 21q0 5 5 7q14 6 44 4q5 0 6 -1q3 0 4 -4q3 0 4 -1q3 -2 4 -4q2 -4 2 -17q-2 -47 -3 -62q0 -8 -17 -8q-6 0 -12 2q-2 -2 -5 -2l-18 -3q-14 -2 -22 -2q-10 0 -13 1zM100 16q1 15 3 62q0 14 -2 16q-33 2 -47 -4v-6q0 -8 3 -14q11 0 13 1t11 1
q1 -4 -2 -55q0 -3 10 -3q11 0 11 2zM53 11l19 3q1 3 1 9q0 9 -4 13l-10 -3q-10 -2 -20 -2q-4 0 -4 1q-3 5 -3 25v22q0 19 1 32q0 11 1 16v12l1 -1l40 1l19 2q1 2 1 12q0 5 -2 7q-5 1 -17 1h-19q-7 -1 -15 -1h-7q-1 0 -3 -3q-2 2 -12 2q-8 0 -10 -2v-89q0 -31 2 -45
q2 -12 9 -13q1 -1 11 -1q7 0 21 2z" />
    <glyph glyph-name="H" unicode="H" horiz-adv-x="126" 
d="M17 3l-3 3q-1 0 -5 2q-4 3 -4 8l-1 94q0 51 5 53q4 3 14 4q13 0 16 -6q10 -2 9 -11q1 -8 1 -45h4l7 -1h6l10 -1q0 58 5 60q4 3 14 4q13 0 16 -6q10 -2 9 -11q1 -10 1 -63v-51v-23q2 -5 -1 -7q-4 -4 -9 -5q-3 -1 -12 -1q-5 0 -10 3l-3 3q-1 0 -5 2q-4 3 -4 8l-1 50h-27
v-35v-18q0 -1 0.5 -3t-1.5 -4q-4 -4 -9 -5q-3 -1 -12 -1q-5 0 -10 3zM29 12q5 1 7 3q-1 3 -1 21v41h39q4 3 4 11q0 7 -2 9l-20 2h-17q-1 -1 -4 -1q0 59 -1 60q-1 3 -10 3l-12 -3q-2 -2 -2 -50l1 -94q4 -3 8 -3q8 0 10 1zM101 12q5 1 7 3q-1 4 -1 26v51q0 65 -1 66
q-1 3 -10 3l-12 -3q-2 -2 -2 -50l1 -94q5 -3 8 -3q8 0 10 1z" />
    <glyph glyph-name="I" unicode="I" horiz-adv-x="54" 
d="M17 3l-2 2l-6 3q-4 3 -4 34l-1 69q0 49 5 51q4 3 14 4q13 0 16 -6q11 -2 9 -11q1 -11 1 -62v-51v-23q2 -5 -1 -7q-4 -4 -9 -5q-3 -1 -12 -1q-5 0 -10 3zM29 12q5 1 7 3q-1 4 -1 26v51q0 64 -1 65q-1 3 -10 3l-12 -3q-2 -2 -2 -50l1 -93q4 -3 8 -3q8 0 10 1z" />
    <glyph glyph-name="J" unicode="J" horiz-adv-x="90" 
d="M19 2q-4 0 -6 4l-2 1q-5 2 -6 6q-1 3 -1 9q0 9 5 16q3 4 8 2l9 -2l10 -2q5 0 5 -5l2 7q1 3 1 18v22q0 20 -1 33t-1 31v8v4q0 7 4.5 9.5t15.5 2.5q5 0 11 -2q3 -1 4 -4l4 -1q2 -1 4 -4q1 -1 1 -6v-87q0 -27 -2 -45q-2 -16 -13 -19q-3 -1 -13 -1q-12 0 -39 5zM61 9
q8 2 9 14q2 14 2 44v91q-2 2 -10 2q-13 0 -14 -4v-14q0 -18 1 -31t1 -33v-22q0 -20 -3 -25q0 -1 -11 -1q-3 0 -11 2l-11 3q-4 -4 -4 -13q0 -6 1 -9q25 -5 39 -5q10 0 11 1z" />
    <glyph glyph-name="K" unicode="K" horiz-adv-x="123" 
d="M96 1l-3 3q-1 0 -5 2l-39 37v-16v-14q0 -1 0.5 -3t-1.5 -4q-4 -4 -9 -5q-3 -1 -12 -1q-5 0 -10 3l-3 3q-1 0 -5 2q-4 3 -4 8l-1 94q0 51 5 53q4 3 14 4q13 0 16 -6q11 -2 9 -11q1 -8 1 -42l31 49q1 3 6 5h5l-1 1h1l4 -2l7 -3l1 -2q2 0 2 -1l5 -2l1 -2l3 -2q2 -2 2 -3
l1 -1v0l1 -3q0 -5 -2 -8l-35 -59q-3 -4 -9 -3l44 -42q3 -3 3 -8t-4 -11q-3 -8 -11 -11q-3 -2 -8 1zM102 19q3 5 3 10l-69 66q-1 0 -1 -1q0 63 -1 64q-1 3 -10 3l-12 -3q-2 -2 -2 -50l1 -94q4 -3 8 -3q8 0 10 1q5 1 7 3q-1 3 -1 17v32l58 -54q6 3 9 9zM105 146l-3 4l-4 3
l-6 3q-1 1 -2.5 1t-2.5 1l-38 -62q2 -4 7 -9q2 -3 11 -5z" />
    <glyph glyph-name="L" unicode="L" horiz-adv-x="106" 
d="M18 1q-3 2 -4 4l-4 1q-3 2 -4 4q-2 4 -2 17q0 23 1 41l3 66l2 24q0 8 18 8q13 0 15 -6q9 -1 9 -8l-2 -26q-3 -64 -3 -87h8q9 0 11 1q4 1 11 1h7q4 0 7 -4v-1h1q4 0 7 -4q4 -9 3 -22q0 -4 -5 -6q-21 -5 -73 -4q-5 0 -6 1zM88 15v6q0 8 -3 14h-8q-6 0 -9 -1t-13 -1h-22
q-2 8 3 98l2 26q0 3 -10 3q-12 0 -12 -2l-2 -24l-3 -66q-1 -18 -1 -41q0 -14 2 -16q54 -2 76 4z" />
    <glyph glyph-name="M" unicode="M" horiz-adv-x="149" 
d="M17 3l-3 3q-1 0 -5 2q-4 3 -4 8l-1 92q0 50 5 52l11 3q3 1 7 1q6 0 8 -1q4 0 6 -5h2q3 0 6 -4l25 -56l23 60q2 5 7 5l12 1q10 0 16 -3q2 0 2 -3l6 -2q3 0 3.5 -10.5t0.5 -26.5v-32v-51v-22q2 -5 -1 -7q-4 -3 -8 -5q-2 -1 -11 -1q-5 0 -10 3l-3 3q-1 0 -5 2q-4 3 -4 7
q-1 12 -1 35l-8 -22q-2 -5 -7 -5q-6 -2 -11 0q-4 2 -5 4l-3 1q-3 1 -5 5l-15 33v-30v-24q2 -5 -1 -7q-4 -4 -9 -5q-2 -1 -10 -1q-5 0 -10 3zM27 12q5 1 7 3q-1 4 -1 27v71l35 -78q5 -2 11 0l28 77v-49q0 -32 1 -48q5 -3 8 -3q7 0 9 1l6 3q-1 4 -1 25v51q0 63 -1 64
q-8 2 -14 2l-12 -1l-31 -81l-37 81h-1q-2 1 -10 1l-12 -3q-2 -2 -2 -49l1 -92q4 -3 8 -3q6 0 8 1z" />
    <glyph glyph-name="N" unicode="N" horiz-adv-x="132" 
d="M17 3l-3 3q-1 0 -5 2q-4 3 -4 8l-1 94q0 51 5 53q4 3 14 4q13 0 16 -6q7 -2 8 -5l36 -64q-2 68 3 70q4 4 15 5q13 0 16 -6q10 -2 9 -11q1 -10 1 -63v-51v-23q2 -5 -1 -7q-4 -4 -9 -5q-3 -1 -12 -1q-4 0 -9 3l-4 3l-4 2q-3 1 -5 5l-35 60v-36v-24q2 -5 -1 -7q-4 -4 -8 -5
q-2 -1 -12 -1q-5 0 -10 3zM29 12l6 3q-1 4 -1 27v68l55 -96q5 -3 8 -3q8 0 10 1q5 1 7 3q-1 4 -1 26v51q0 65 -1 66q-1 3 -10 3l-12 -3q-1 -1 -1 -50v-49l-55 99q-1 3 -10 3l-12 -3q-2 -2 -2 -50l1 -94q4 -3 8 -3q8 0 10 1z" />
    <glyph glyph-name="O" unicode="O" horiz-adv-x="125" 
d="M27 -2q-5 2 -8 5q-11 3 -13 18q-2 18 -2 78v55q0 5 1 6q2 3 4 4q6 2 11 2q13 0 17 -4q2 2 5 2q27 6 59 4q5 0 6 -1q3 -2 4 -4l4 -1q3 -2 4 -4q2 -4 2 -17q0 -23 -1 -40l-3 -67l-2 -24q0 -8 -17 -8q-6 0 -12 2q-2 -2 -5 -2l-23 -3q-3 0 -5 -1l-13 -1q-10 0 -13 1zM49 10
l24 3q1 3 1 9q0 9 -4 13l-15 -3q-3 -1 -9 -1q-3 -1 -7 -1t-4 1q-3 5 -3 25v42q0 22 1 29t1 19v10q-1 4 -14 4q-8 0 -10 -2v-59q0 -63 2 -77q2 -12 9 -13q1 -1 11 -1q3 0 17 2zM49 37h1l7 1l9 2q5 2 8 -1l2 -2v5q3 63 3 86q-3 -1 -11 -1h-14q-4 0 -6 3l-1 -9q-1 -6 -1 -28
v-42l1 -14h2zM101 15l2 24l3 67q1 17 1 40q0 14 -2 16q-34 2 -63 -4v-6q0 -8 3 -14h15q7 0 10 1t15 1q2 -8 -3 -98l-2 -26q0 -3 10 -3q11 0 11 2z" />
    <glyph glyph-name="P" unicode="P" horiz-adv-x="119" 
d="M17 3l-3 3q-1 0 -5 2q-4 3 -4 8l-1 93q0 50 5 52q4 3 14 4q11 0 15 -5q2 2 5 2q23 5 33 5q11 0 21 -5l4 -3l4 -2q4 -2 5 -5q5 -9 5 -37q0 -20 -2 -38q0 -5 -5 -7q-6 -3 -11 -3q-8 0 -13 4q-2 -2 -7 -2h-28v-37v-18v-4t-1 -4q-4 -4 -9 -5q-3 -1 -12 -1q-5 0 -10 3zM29 12
q5 1 7 3q-1 3 -1 22v43h36q3 3 3 10q0 9 -4 10h-7q-9 0 -16 1h-12q0 54 -1 55q-1 3 -10 3l-12 -3q-2 -2 -2 -49l1 -93q4 -3 8 -3q8 0 10 1zM74 111v18l-21 -1q-3 0 -4 1v-22q6 -1 14 -1h4q4 0 7 -1v6zM99 81q2 14 2 39q0 28 -5 36q-8 5 -20 5q-9 0 -34 -5q-1 -1 -1 -4
q0 -4 3 -13l34 2q2 -4 2 -18q0 -30 -3 -42q8 -3 12 -3t10 3z" />
    <glyph glyph-name="Q" unicode="Q" horiz-adv-x="121" 
d="M70 -16h-2q-4 0 -6 5l-6 9h-5q-5 -1 -11 -1q-10 0 -13 1q-5 2 -8 5q-11 3 -13 18q-2 18 -2 46v86q0 5 1 6q2 3 4 4q6 2 11 2q13 0 17 -4l4 2q24 6 56 4q5 0 6 -1q3 0 4 -4q3 0 4 -1q3 -2 4 -4q2 -4 2 -17q0 -23 -1 -40l-3 -66l-2 -24q0 -8 -17 -8h-2q5 0 6 -4l2 -4
q0 -4 -3 -7t-7 -5q-6 -5 -14 -3q-4 0 -6 5zM71 -10q4 0 8 2q5 2 7 7l-8 13q1 1 5 1h3q11 0 11 2l2 24l3 66q1 17 1 40q0 14 -2 16q-34 2 -59 -4v-6q0 -8 3 -14h11q7 0 10 1t15 1q2 -8 -3 -97l-1 -8h-4q-2 -1 -6 -1l-8 13q-1 -1 -5 -1l-6 -3l-8 -5l4 -7h-5q-4 0 -4 1
q-3 5 -3 25v22q0 20 1 33t1 30v14q-1 4 -14 4q-8 0 -10 -2v-90q0 -31 2 -45q2 -12 9 -13q1 -1 11 -1q6 0 10 1q9 0 14 1l12 -20h3zM75 127q-3 -1 -11 -1h-10q-3 0 -6 3q0 -14 -1 -23q-1 -13 -1 -33v-22v-3l3 1q3 2 6 2q1 0 0 -1h5q4 -2 8 -5l4 -2q3 62 3 84z" />
    <glyph glyph-name="R" unicode="R" horiz-adv-x="120" 
d="M87 1l-1 2q-4 0 -7 3l-30 41v-16v-18q0 -1 0.5 -3t-1.5 -4q-4 -4 -9 -5q-3 -1 -12 -1q-5 0 -10 3l-3 3q-1 0 -5 2q-4 3 -4 8l-1 93q0 50 5 52q4 3 14 4q11 0 15 -5q2 2 5 2q23 5 33 5q11 0 21 -5l4 -3l4 -2q4 -2 5 -5q5 -9 5 -38q0 -21 -2 -39q0 -5 -5 -7q-6 -3 -11 -3
q-8 0 -13 4l-4 -2l34 -44q3 -5 1 -8q-2 -4 -7 -9t-13 -8q-5 0 -8 3zM96 15q4 4 6 8l-40 53q-1 -1 -2.5 -1t-2.5 -1l-5 -3l-5 -4l-3 -3l41 -55q6 1 11 6zM29 12q5 1 7 3q-1 3 -1 21v41h8l28 1q3 3 3 10q0 9 -4 10h-7q-9 0 -16 1h-12q0 56 -1 57q-1 3 -10 3l-12 -3
q-2 -2 -2 -49l1 -93q4 -3 8 -3q8 0 10 1zM74 110v19l-21 -1q-3 0 -4 1v-24q6 -1 14 -1h4q4 0 7 -1v7zM99 79q2 14 2 40q0 29 -5 37q-8 5 -20 5q-9 0 -34 -5q-1 -1 -1 -4q0 -4 3 -13l34 2q2 -4 2 -19q0 -31 -3 -43q8 -3 12 -3t10 3z" />
    <glyph glyph-name="S" unicode="S" horiz-adv-x="111" 
d="M14 3h-1q-5 0 -7 5q-2 8 -2 12l1 8q2 5 4 7q4 2 7 2h46l1 3v7l1 18h-11q-9 -1 -20 -1l-7 -1q-4 0 -7 1.5t-2 2.5l-1 1q-8 2 -7 4l-3 10q-1 4 -1 13q0 15 2 37l3 27v2q2 4 5 5t9 1q8 0 11 -1l50 2q4 0 7 -4v-1h1q4 0 7 -4q4 -7 2 -23q0 -6 -6 -6l-47 -3v-12
q0 -2 -0.5 -4.5t0.5 -6.5l15 1q15 0 20 -1q4 -1 10 -5q15 -5 13 -27q-2 -58 -7 -69q-2 -4 -14 -4h-1l-64 -1q-5 0 -7 5zM71 10v1q2 -1 7 -1q8 0 9 1q5 11 6 66v4q0 15 -10 17q-5 1 -19 1l-30 -2q0 16 1 23q0 13 1 18l52 3l1 8q0 7 -3 13l-52 -2q-2 1 -10 1q-7 0 -8 -1v-1
l-3 -28q-2 -22 -2 -36q0 -6 2 -20q3 -2 11 0q11 0 20 1q24 1 25 0q1 -2 1 -10q0 -11 -1 -19v-8l-2 -8h-55l-2 -11q0 -3 2 -11z" />
    <glyph glyph-name="T" unicode="T" horiz-adv-x="129" 
d="M57 3l-2 2l-6 3q-4 3 -4 30q-1 20 -1 52q0 29 2 37l-23 -2q-5 0 -8 4v1q-5 0 -8 4q-3 5 -3 13q0 6 3 12q3 4 7 4l94 7q6 0 8 -5q6 0 7 -6q2 -4 2 -12q0 -11 -3 -13q-2 -2 -6 -2l-30 -2q2 -2 2 -7q1 -9 1 -50v-41v-19q2 -5 -1 -7q-4 -4 -9 -5q-3 -1 -12 -1q-5 0 -10 3z
M69 12q5 1 7 3q-1 4 -1 22v41q0 51 -1 52q-1 3 -10 3l-12 -3q-2 -2 -2 -40l1 -76q5 -3 8 -3q8 0 10 1zM110 143q1 1 1 9q0 6 -2 12l-96 -7q-3 -4 -3 -10t3 -11z" />
    <glyph glyph-name="U" unicode="U" horiz-adv-x="122" 
d="M27 2q-5 2 -8 5q-11 3 -13 18q-2 18 -2 46l1 82q0 5 1 6q2 3 4 4q6 2 11 2q15 0 19 -6q6 -2 8 -5q1 -2 1 -7v-10q0 -17 -1 -29q-1 -13 -1 -32q-1 -9 -1 -21l1 -15h3l7 1q8 2 9 2q4 2 7 -1q2 42 2 83q0 21 -1 32q0 4 4 7q4 2 10 2q2 1 5 1q12 0 15 -6q10 -2 9 -10
q1 -10 1 -54v-49l-1 -18q0 -13 -1 -19q-1 -4 -11 -7q-3 -1 -12 -1q-4 0 -10 3l-3 -1l-22 -3q-8 -1 -18 -1t-13 1zM49 13l23 3q1 4 1 10q0 8 -4 12l-14 -3q-3 -1 -9 -1h-7q-4 0 -4 1q-3 5 -3 25q0 12 1 21q0 19 1 32q1 12 1 29v13q-1 4 -14 4q-8 0 -10 -2l-1 -86q0 -31 2 -45
q2 -12 9 -13q1 -1 11 -1t17 1zM95 15q5 1 7 3l2 35v49q0 55 -1 56q-1 3 -11 3l-12 -3v-47q0 -64 -3 -94q5 -3 8 -3q8 0 10 1z" />
    <glyph glyph-name="V" unicode="V" horiz-adv-x="148" 
d="M76 0l-10 1q-4 2 -5 5h-3q-3 1 -5 6l-48 134q-2 5 3 9q10 10 22 10q7 0 8 -5h2q4 0 6 -5l28 -85l27 90q2 5 6 5q12 0 22 -8q7 -3 13 -9q3 -3 1 -8l-47 -134q-2 -5 -7 -5q-5 -1 -13 -1zM68 11l14 1l48 136q-11 11 -23 11l-36 -119l-39 119h-2q-10 0 -20 -10l49 -137z" />
    <glyph glyph-name="W" unicode="W" horiz-adv-x="201" 
d="M65 0l-10 1q-4 1 -5 5h-3q-3 1 -5 6l-37 137q-1 4 1 8q9 11 26 9q4 0 6 -5h2q5 0 6 -6l17 -68l17 73q2 5 7 5h16q5 0 7 -5h1q5 0 7 -5l16 -71l22 78q2 5 6 5h3q11 0 18 -7q5 -1 12 -8q2 -4 1 -8l-41 -137l-2 -5q-4 -2 -13 -2t-14 1q-5 0 -7 5h-1q-5 0 -7 5l-12 53
l-13 -58q-2 -5 -7 -5q-5 -1 -14 -1zM57 11l15 1l23 99l22 -99l15 -1l9 1l42 140q-9 11 -21 9l-32 -114l-26 112h-18l-26 -111l-28 112h-4q-13 0 -18 -8l38 -140z" />
    <glyph glyph-name="X" unicode="X" horiz-adv-x="140" 
d="M32 -2l-2 1q-6 3 -8 5l-2 1q-4 2 -6 4q-5 3 -7 10q0 3 2 7l36 59l-39 55q-2 4 -2 7q0 4 2 7q6 8 18 13q3 1 7 -3l2 -2q5 0 6 -3l28 -39l27 45q3 5 6 3l3 -1q7 -2 11 -6q9 -3 15 -14q2 -4 1 -8l-35 -58l39 -54q2 -3 2 -7l-1 -5q-2 -4 -9 -11q-5 -5 -12 -5q-4 0 -7 4l-1 1
q-4 0 -7 4l-27 38l-26 -45q-3 -4 -8 -4zM66 65l39 -55q5 0 9 4q6 4 7 8l1 5l-42 59l37 62q-7 12 -16 13l-2 1l-34 -56l-39 55q-12 -3 -16 -12v-4l42 -60l-39 -64q0 -4 4 -7q2 -1 9 -5l6 -1z" />
    <glyph glyph-name="Y" unicode="Y" horiz-adv-x="134" 
d="M61 2h-2q-6 0 -6 6l-5 78v2q-2 0 -4 3l-39 52q-3 5 1 9l8 7q2 3 13 7q5 0 8 -3l1 -2q4 0 7 -3l25 -35l22 37l4 5q3 1 7 0q2 0 4 -1t5 -2l4 -4l4 -1l5 -5l4 -3l2 -2l1 -3q0 -5 -2 -8l-36 -59l5 -68q0 -5 -4 -8q-10 -6 -26 -4q-4 0 -6 5zM64 112l-35 48q-8 -2 -11 -5l-8 -8
l39 -53q12 8 15 18zM65 8q11 0 18 4l-5 71l39 65l-8 7q-8 5 -12 5l-43 -71l5 -81h6z" />
    <glyph glyph-name="Z" unicode="Z" horiz-adv-x="126" 
d="M23 0q-4 2 -5 4l-3 1q-8 4 -11 21q0 5 2 8l57 94l-44 -1q-4 0 -6 5h-2q-4 0 -6 5l-1 8v3q0 10 1 13q1 2 4 4q1 1 6 1l60 1q5 0 6 -1q3 0 4 -3q2 3 5 3q11 0 18 -7q10 -4 13 -15q1 -4 -1 -8l-61 -98l38 1q4 0 6 -1q3 -1 4 -4l4 -1q3 -1 4 -4q2 0 2 -7q1 -2 1 -6l-1 -9
q-1 -6 -6 -6l-82 -2q-5 0 -6 1zM103 12q1 10 0 17l-2 4l-64 -2l71 115q-3 12 -18 14l-80 -131q1 -16 8 -19zM67 139q12 10 14 18l-2 4l-68 -1q-1 -1 -1 -15l1 -7z" />
    <glyph glyph-name="a" unicode="a" horiz-adv-x="128" 
d="M27 -5q-4 1 -8 5q-11 3 -13 18q-2 14 -2 29l-1 45q0 4 1 6q2 3 4 4q6 2 11 2q13 0 17 -4l4 2q15 4 35 4q10 0 16 -1q6 3 8 -5q1 1 3 1q4 0 5.5 -6.5t0.5 -15.5v-31l-1 -11h1q3 -1 4 -4l4 -1q3 -1 4 -4l3 -11l1 -8q0 -10 -8 -10l-14 -1q-6 0 -6 3v2h-1v-1q0 -3 -3 -3h-3
q-6 0 -12 2q-2 -2 -5 -2l-16 -3q-10 -2 -16 -2q-10 0 -13 1zM47 7l17 3q1 3 1 9q0 9 -4 13l-10 -3l-12 -2q-4 0 -4 1q-3 5 -3 18v17q0 9 1 13v18q-1 4 -14 4q-8 0 -10 -2l1 -49q0 -14 2 -28q2 -12 9 -13q1 -1 11 -1q5 0 15 2zM47 34l3 1l8 2q4 2 7 -1v3l1 27q-3 -1 -12 -1
q-5 0 -7 3l-1 -1v-9v-17v-7h1zM108 10q3 0 1 11q-2 10 -3 11l-12 -1l-1 5q1 3 1 17v31v7q0 8 -1 9q-31 2 -52 -4v-6q0 -8 3 -14q12 0 15 1t12 1q1 -2 1 -13q0 -15 -1 -26v-26q0 -3 10 -3h6q0 -1 1 -1z" />
    <glyph glyph-name="b" unicode="b" horiz-adv-x="107" 
d="M27 -6q-5 2 -8 5q-11 3 -13 18q-2 14 -2 32l1 106q0 5 1 6q2 3 4 4q6 2 9 2q15 0 19 -6q6 -2 8 -5q1 -2 1 -7v-44l15 2q18 0 27 -2q3 0 5 -4l3 -1q5 0 5 -6l1 -14v-32q0 -15 -1 -20l-2 -23q0 -8 -17 -8q-8 0 -12 2l-4 -2q-11 -4 -27 -4q-10 0 -13 1zM61 37l1 30l-7 -1
q-6 0 -9 3v-29v-7q2 0 3 1h3q5 2 8 -2l1 -1v6zM58 8q1 3 1 8q0 9 -4 13l-8 -2q-1 -1 -8 -1q-4 0 -4 1q-3 5 -3 18v27q0 22 1 37v48q-1 4 -14 4q-6 0 -8 -2l-1 -110q0 -17 2 -31q2 -12 9 -13q1 -1 11 -1q15 0 26 4zM86 10l2 24q1 4 1 19v32q0 13 -2 15q-9 1 -25 1l-22 -3
l-1 -9q0 -6 3 -11q3 -2 11 0q3 1 14 1q1 -2 1 -14q0 -16 -1 -28l-2 -26q0 -3 10 -3q11 0 11 2z" />
    <glyph glyph-name="c" unicode="c" horiz-adv-x="100" 
d="M22 -1l-4 3l-4 2q-4 2 -5 5q-5 9 -5 43q0 24 2 44q0 4 5 6q6 3 11 3q4 0 16 -3q2 1 6 1l14 1q4 1 11 1q5 0 6 -1h2q2 0 3 -1l5 -4q2 0 3 -1q3 -1 4 -4q1 -1 1 -5l1 -6q0 -12 -7 -15q-8 -2 -17 -2h-16h-5l-1 -10v-23l30 2q6 0 8 -5q6 0 7 -5q3 -9 3 -15q0 -4 -2 -8
q-2 -3 -7 -3l-24 -3q-4 0 -6 -1l-14 -1q-11 0 -21 5zM54 7l27 3q1 1 1 5q0 5 -3 14l-44 -3q-2 7 -1 35q1 11 1 25q0 9 1 10l-14 3q-4 0 -10 -3q-2 -14 -2 -44q0 -34 5 -42q8 -5 20 -5q3 0 19 2zM62 77q13 0 15 2q3 2 3 9l-1 9q-1 1 -3 1t-4 1q-8 0 -13 -1l-17 -1
q-3 -3 -3 -10q0 -9 4 -10h19z" />
    <glyph glyph-name="d" unicode="d" horiz-adv-x="110" 
d="M22 -1l-4 3l-4 2q-4 2 -5 5q-5 9 -5 43q0 23 2 43q0 4 5 6q6 3 11 3q6 0 15 -5l1 2q2 2 7 2l15 1h1q0 56 4 58q3 3 11 4q2 1 5 1q11 0 14 -6q10 -2 9 -11q1 -6 1 -29v-34v-51v-23q2 -5 -1 -7q-4 -4 -8 -5q-2 -1 -12 -1q-3 0 -9 2q-1 -3 -5 -3q-18 -5 -27 -5q-11 0 -21 5z
M62 10q1 1 1 5q0 6 -3 15l-25 -3q-4 5 -2 34q1 10 1 24q0 9 1 10q-9 3 -13 3t-10 -3q-2 -14 -2 -43q0 -34 5 -42q8 -5 20 -5q10 0 27 5zM59 36h3v12v17h-3h-4q-5 0 -7 1l-1 -10v-22zM86 12l6 3q-1 4 -1 26v51q0 65 -1 66q-1 3 -10 3l-11 -3q-2 -2 -2 -60h-7l-17 -1
q-3 -3 -3 -10q0 -10 4 -11h7q7 0 12 1h4q1 -9 1 -29v-34q5 -3 8 -3q8 0 10 1z" />
    <glyph glyph-name="e" unicode="e" horiz-adv-x="112" 
d="M28 -6q-4 1 -8 5q-11 3 -13 17q-2 8 -3 36v40q0 5 1 6q2 3 4 4q6 2 10 2q14 0 18 -4l2 1q15 5 34 5q13 0 20 -1q4 0 6 -5h2q6 0 6 -6l1 -14v-23l-1 -8q0 -6 -1 -8q-1 -4 -5 -5t-7.5 -1h-4.5h-4q-3 -1 -11 -1l-9 -1l-16 -2h-2v-1h2q9 0 16 1q20 3 18 2q1 0 3.5 1t4.5 -2
l3 -3q4 0 5 -2q7 -6 7 -16q0 -6 -1 -9q-2 -5 -6 -5l-36 -3q-10 -1 -22 -1q-10 0 -13 1zM54 5l37 3q1 3 1 8q0 8 -4 12q-5 -2 -23 -3q-7 -1 -16 -1h-9q-4 0 -4 1q-3 5 -3 21v49q-1 3 -14 3q-7 0 -9 -2v-44q2 -28 3 -35q2 -11 9 -12q1 -1 11 -1q12 0 21 1zM48 70l-1 2v-3z
M56 44l20 2h5q11 0 11 1q0 -1 2 15v23q0 13 -2 15q-33 2 -50 -4v-6q0 -7 3 -12h4q4 0 7 1t9 1h7q1 -3 1 -8q-1 -3 -1 -9q-10 2 -17 1l-18 -2q-4 -1 -3 -9q0 -8 4 -11z" />
    <glyph glyph-name="f" unicode="f" horiz-adv-x="101" 
d="M35 5q-8 0 -8 7l-3 24v21v9q-4 0 -7 3l-2 2q-4 0 -6 3q-5 5 -5 16q0 10 6 14q2 1 7 1h6v19q0 14 1 20q0 24 10 20q12 1 28 1q15 0 21 -1q3 0 5 -5h3q5 -2 5 -6l1 -10q0 -7 -3 -12q-1 -4 -6 -4q-13 0 -16 1h-4l-3 -1v-24q7 0 11 -2l2 -3l6 -2q4 -4 4 -12q0 -12 -2 -16
q-2 -3 -20 -3v-2v-9v-20l2 -26q0 -9 -16 -9q-15 0 -17 6zM54 13l-2 26v20q0 12 -1 17h1q20 0 21 1q1 2 1 12q0 5 -2 7q-6 2 -21 2q0 37 1 39l7 2h6q2 -1 16 -1q2 4 2 10l-1 10q-12 2 -25 2l-25 -1q-2 -2 -2 -16q-1 -5 -1 -19v-25h-15q-4 -1 -4 -9q0 -9 4 -13h15q1 -7 1 -20
v-21l3 -24q0 -2 11 -2q10 0 10 3z" />
    <glyph glyph-name="g" unicode="g" horiz-adv-x="119" 
d="M22 -34l-2 2q-4 0 -6 3q-5 5 -5 14v4q0 8 5 12q2 1 7 1l26 2q6 1 16 1h5l2 -1v2l1 13l-13 -2q-8 -1 -19 -1q-10 0 -13 1q-1 0 -8 5q-10 3 -12 18q-1 3 -1 13q-1 6 -1 19l1 26q0 5 2 7q2 3 14 3q10 0 16 -3l2 1q24 6 56 4q5 0 6 -1q3 0 4 -4q3 0 4 -1q3 -2 4 -4
q2 -4 2 -17q0 -21 -1 -35l-3 -50l-2 -24q0 -8 -17 -8h-6l-29 -3h-1h-27q-4 0 -7 3zM48 -26l30 3h6q11 0 11 2l2 24l3 50q1 14 1 35q0 14 -2 16q-34 2 -59 -4v-6q0 -8 3 -14q18 0 21 1t15 1q2 -8 -3 -76l-1 -8q-5 0 -9 1q-11 0 -18 -1l-30 -2q-5 -2 -3 -10q0 -8 4 -12h29z
M49 28l24 3q1 3 1 9q0 10 -4 14l-15 -3q-3 -1 -9 -1q-3 -1 -7 -1t-4 1q-3 5 -3 20v7q0 4 1 7t1 8v6q0 4 -13 4q-9 0 -10 -1l-1 -29q0 -13 1 -18q0 -10 1 -13q1 -12 8 -13q1 -1 11 -1q11 0 18 1zM49 56h1l7 1l9 2q4 2 7 0v11q-3 -1 -20 -1q-4 0 -7 3v-7v-9h3z" />
    <glyph glyph-name="h" unicode="h" horiz-adv-x="111" 
d="M17 3l-2 2l-6 3q-4 3 -4 34l-1 70q0 49 5 51q4 3 14 4q13 0 16 -6q10 -2 9 -11q1 -8 1 -45q18 3 38 2q5 0 6 -1q3 -2 4 -4l4 -1q3 -2 4 -4q2 -4 2 -17q0 -42 -3 -72q0 -8 -17 -8q-13 0 -15 6q-9 1 -9 8l2 52q-3 -1 -12 -1l-4 1v-30v-23q2 -5 -1 -7q-4 -4 -9 -5
q-3 -1 -12 -1q-5 0 -10 3zM29 12q5 1 7 3q-1 4 -1 26v51q0 65 -1 66q-1 3 -10 3l-12 -3q-2 -2 -2 -50l1 -94q4 -3 8 -3q8 0 10 1zM90 13q3 30 3 72q0 14 -2 16q-33 2 -51 -4v-6q0 -9 3 -15q12 0 15 1t13 1q1 -4 -2 -64q0 -3 10 -3q11 0 11 2z" />
    <glyph glyph-name="i" unicode="i" horiz-adv-x="55" 
d="M18 1l-2 3q-2 0 -6 2q-4 3 -4 25q-1 14 -1 36q0 33 5 35q4 3 14 4q13 0 16 -6q9 -2 9 -9q1 -7 1 -35v-30v-15q2 -5 -1 -7q-4 -4 -9 -5q-3 -1 -12 -1q-5 0 -10 3zM30 10q5 1 7 3q-1 4 -1 18v30q0 35 -1 36q-1 3 -10 3l-12 -3q-2 -2 -2 -30l1 -55q5 -3 8 -3q8 0 10 1z
M34 138q2 2 2 12t-2 12l-22 -1q-2 -2 -2 -12q0 -9 2 -11h22zM18 128q-3 2 -4 4l-4 1q-3 2 -4 4q-2 6 -2 12q0 7 2 13q1 2 4 4q1 1 6 1l14 1q4 0 6 -1q3 -2 4 -4l4 -1q3 -2 4 -4q2 -6 2 -13t-2 -13q-1 -2 -4 -4q-1 -1 -6 -1h-14q-5 0 -6 1z" />
    <glyph glyph-name="j" unicode="j" horiz-adv-x="90" 
d="M19 -41q-4 0 -6 4l-2 1q-5 2 -6 6q-1 3 -1 9q0 9 5 16q3 4 8 2l9 -2l10 -2q5 0 5 -5l2 7q1 3 1 18v20q0 16 -1 25q-1 11 -1 25v9q0 5 1 7q4 6 19 6q5 0 11 -2q3 -1 4 -4l4 -1q2 -1 4 -4q1 -1 1 -6v-69q0 -27 -2 -45q-2 -16 -13 -19q-3 -1 -13 -1q-12 0 -39 5zM61 -34
q8 2 9 14q2 14 2 44v73q-2 2 -10 2q-13 0 -14 -4v-12q0 -14 1 -24t1 -26v-20q0 -21 -3 -25q0 -1 -11 -1q-3 0 -11 2l-11 3q-4 -4 -4 -13q0 -6 1 -9q25 -5 39 -5q10 0 11 1zM69 138q2 2 2 12t-2 12l-22 -1q-2 -2 -2 -12q0 -9 2 -11h22zM53 128q-3 2 -4 4l-4 1q-3 2 -4 4
q-2 6 -2 12q0 7 2 13q1 2 4 4q1 1 6 1l14 1q4 0 6 -1q3 -2 4 -4l4 -1q3 -2 4 -4q2 -6 2 -13t-2 -13q-1 -2 -4 -4q-1 -1 -6 -1h-14q-5 0 -6 1z" />
    <glyph glyph-name="k" unicode="k" horiz-adv-x="112" 
d="M17 3l-3 3q-1 0 -5 2q-4 3 -4 8l-1 95q0 51 5 53q4 3 14 4q13 0 16 -6q10 -2 9 -11q1 -10 1 -63v-5l14 18q1 4 7 4h4l-1 1h1l4 -2l3 -1q4 -2 5 -4l3 -1l6 -5l4 -5l0.5 -0.5l0.5 -0.5l1 -3q0 -5 -3 -8l-20 -27l26 -18q4 -3 4 -7q0 -6 -4 -12q-3 -8 -11 -11q-3 -3 -8 1
l-4 3l-4 2l-28 21q0 -14 0.5 -16l0.5 -2q-1 -6 -11 -9q-3 -1 -12 -1q-5 0 -10 3zM29 12q5 1 7 3q-1 3 -1 31l47 -35q6 3 9 9q3 5 3 10l-32 23l26 35l-7 8l-6 3q-1 1 -2.5 1t-2.5 1l-26 -34l-6 4q-1 0 -3 -2v24q0 65 -1 66q-1 3 -10 3l-12 -3q-2 -2 -2 -50l1 -95q4 -3 8 -3
q8 0 10 1z" />
    <glyph glyph-name="l" unicode="l" horiz-adv-x="54" 
d="M17 3l-2 2l-6 3q-4 3 -4 34l-1 70q0 49 5 51q4 3 14 4q13 0 16 -6q10 -2 9 -11q1 -10 1 -63v-51v-23q2 -5 -1 -7q-4 -4 -9 -5q-3 -1 -12 -1q-5 0 -10 3zM29 12q5 1 7 3q-1 4 -1 26v51q0 65 -1 66q-1 3 -10 3l-12 -3q-2 -2 -2 -50l1 -94q4 -3 8 -3q8 0 10 1z" />
    <glyph glyph-name="m" unicode="m" horiz-adv-x="155" 
d="M17 1l-2 3q-2 0 -6 2q-4 3 -4 25l-1 40q0 28 5 30q4 3 14 4q12 0 16 -5q7 3 24 3q13 0 20 -1q4 0 5 -4q15 5 43 3q5 0 6 -1q3 -2 4 -4l4 -1q3 -2 4 -4q2 -4 2 -17q0 -24 -3 -68q0 -8 -17 -8q-14 0 -16 6q-9 2 -9 8l2 48q-2 -1 -10 -1l-3 -53q0 -8 -17 -8q-13 0 -15 6
q-9 1 -9 8l2 50h-3l-4 1v-8v-29v-15q2 -5 -1 -7q-4 -4 -9 -5q-3 -1 -12 -1q-5 0 -10 3zM29 10q5 1 7 3q-1 4 -1 18v29q0 35 -1 36q-1 3 -10 3l-12 -3q-2 -2 -2 -30l1 -54q4 -3 8 -3q8 0 10 1zM81 11q3 44 3 67q0 17 -2 19h-14q-20 0 -28 -3v-6q0 -9 3 -15q9 0 10 1h9
q1 -4 -2 -62q0 -3 10 -3q11 0 11 2zM134 11q3 44 3 68q0 14 -2 16q-39 1 -50 -4v-7q0 -9 3 -14q9 0 12 1t14 1q1 -4 -2 -60q0 -3 11 -3t11 2z" />
    <glyph glyph-name="n" unicode="n" horiz-adv-x="106" 
d="M17 1l-2 3q-2 0 -6 2q-4 3 -4 25l-1 39q0 28 5 30q4 3 14 4q12 0 16 -5q12 3 28 3q13 0 20 -1q4 0 6 -5h2q4 0 6 -5q1 -5 1 -19q0 -24 -3 -66q0 -8 -17 -8q-13 0 -15 6q-9 1 -9 8l2 50h-7l-4 1v-8v-29v-15q2 -5 -1 -7q-4 -4 -9 -5q-3 -1 -12 -1q-5 0 -10 3zM29 10
q5 1 7 3q-1 4 -1 18v29q0 34 -1 35q-1 3 -10 3l-12 -3q-2 -2 -2 -29l1 -54q4 -3 8 -3q8 0 10 1zM85 11q3 42 3 66q0 17 -2 19q-31 1 -46 -3v-6q0 -8 3 -14q13 0 14 1h9q1 -4 -2 -62q0 -3 10 -3q11 0 11 2z" />
    <glyph glyph-name="o" unicode="o" horiz-adv-x="107" 
d="M27 -5q-5 2 -8 5q-11 3 -13 18q-2 18 -2 42l1 32q0 5 1 6q2 3 4 4q6 2 9 2q13 0 17 -4q2 2 5 2l21 3q18 0 27 -2q3 0 5 -4l3 -1q5 0 5 -6l1 -14v-26q0 -16 -1 -23l-2 -24q0 -8 -17 -8q-8 0 -12 2q-2 -2 -5 -2q-12 -3 -26 -3q-10 0 -13 1zM58 8q1 3 1 8q0 9 -4 13
q-2 -1 -8 -1q-1 -1 -8 -1q-4 0 -4 1q-3 5 -3 28v10q0 7 1 11v17q-1 4 -14 4q-6 0 -8 -2l-1 -36q0 -27 2 -41q2 -12 9 -13q1 -1 11 -1q12 0 26 3zM61 47l1 18l-7 -1q-6 0 -9 3v-6v-10l1 -17v0h2q1 0 3.5 1t4.5 0l3 -3zM86 10l2 24q1 7 1 23v26q0 13 -2 15q-9 1 -25 1l-21 -3
l-1 -9q0 -6 3 -11q3 -1 10 0q3 1 14 1q1 -2 1 -11q0 -11 -1 -19l-2 -36q0 -3 10 -3q11 0 11 2z" />
    <glyph glyph-name="p" unicode="p" horiz-adv-x="119" 
d="M17 -43l-3 3q-1 0 -5 2q-4 3 -4 8l-1 82q0 44 5 46q4 3 14 4q11 0 15 -5q2 2 5 2q23 5 33 5q11 0 21 -5l4 -3l4 -2q4 -2 5 -5q5 -9 5 -36q0 -18 -2 -36q0 -5 -5 -7q-6 -3 -11 -3q-8 0 -13 4q-2 -2 -7 -2h-28v-27v-15q0 -1 0.5 -3t-1.5 -4q-4 -4 -9 -5q-3 -1 -12 -1
q-6 0 -10 3zM29 -34q5 1 7 3q-1 3 -1 18v33h36q3 3 3 10q0 9 -4 10h-7q-9 0 -16 1h-12q0 51 -1 52q-1 3 -10 3l-12 -3q-2 -2 -2 -43l1 -82q4 -3 8 -3q8 0 10 1zM74 50v16l-21 -1q-3 0 -4 1v-19q6 -1 14 -1h4q4 0 7 -1v5zM99 21q2 14 2 37q0 27 -5 35q-8 5 -20 5q-9 0 -34 -5
q-1 -1 -1 -4q0 -4 3 -13l34 2q2 -4 2 -17q0 -28 -3 -40q8 -3 12 -3t10 3z" />
    <glyph glyph-name="q" unicode="q" horiz-adv-x="111" 
d="M80 -45q-5 1 -9 5l-1 1q-4 1 -7 4q-2 2 -1 7v14v19h-12q-5 0 -6 2q-2 -2 -4 -2q-6 -2 -10 -2q-5 0 -11 3l-4 3l-4 2q-5 2 -5 7q-2 18 -2 37q0 28 5 37q1 3 5 5q10 5 21 5h14q7 0 11 -1q5 0 6 -3q3 4 11 4h1q5 0 9 -1l7 -3q1 0 2 -3l6 -2q5 -2 5 -47l-1 -81q0 -5 -4 -8
t-10 -3q-9 0 -12 1zM34 17q-1 2 -1 30v12q0 13 2 17h26q4 13 0 19q-4 1 -12 1h-14q-12 0 -20 -5q-5 -8 -5 -36q0 -24 2 -38q6 -3 10 -3q5 0 12 3zM92 -32l1 82q0 41 -2 43l-11 3q-9 0 -11 -3q-1 -1 -1 -56h-8q-5 -1 -12 -1h-7q-4 -1 -4 -10q0 -7 3 -10h28v-30q0 -14 -1 -17
q2 -2 7 -3q2 -1 10 -1q4 0 8 3zM48 42h8l5 1h1v22h-15q0 -2 -0.5 -9t0.5 -14h1z" />
    <glyph glyph-name="r" unicode="r" horiz-adv-x="95" 
d="M17 -2l-3 3q-1 0 -5 2q-4 3 -4 8l-1 55q0 30 5 32q4 3 14 4q13 0 15 -5l1 -1q5 0 6 -3l21 7q4 1 7 0q2 0 6 -4l2 -1q7 -3 10 -14v-6q0 -10 -6 -12l-10 -3l-26 -8v-29v-15q2 -5 -1 -7q-4 -4 -9 -5q-3 -1 -12 -1q-5 0 -10 3zM29 7q5 1 7 3q-1 4 -1 18v34l40 12q3 1 2 11
q-2 9 -7 10l-35 -11v3q-1 1 -1 3v3q-1 3 -10 3l-12 -3q-2 -2 -2 -30l1 -54q4 -3 8 -3q8 0 10 1z" />
    <glyph glyph-name="s" unicode="s" horiz-adv-x="101" 
d="M14 -1h-1q-6 0 -7 5q-2 8 -2 10l1 6l1 5q2 5 6 5l37 1q6 0 6 -2v0v3h-7l-17 -1l-12 1q-3 1 -4 5h-4q-2 1 -4 6q-1 2 -1 7q-1 2 -1 9q0 11 5 41q1 5 14 5q7 0 10 -1l40 2q6 0 7 -3l1 -2q6 0 7 -3q5 -6 3 -21q0 -6 -6 -6l-39 -2v-1l9 1v0q13 0 18 -1q7 -2 11 -6
q14 -3 12 -22q-2 -33 -7 -41q-2 -4 -14 -4h1l-56 -1q-6 0 -7 5zM63 6v1q1 -1 5 -1q8 0 9 1q5 8 6 38v4q0 12 -10 13q-5 1 -17 1l-24 -2q0 7 1 10q0 6 1 9l44 2l1 8q0 6 -3 10l-43 -2q-2 1 -9 1t-8 -1q-5 -25 -5 -39q0 -6 1 -8q0 -5 1 -8l10 -1l17 1q20 2 21 0q1 -1 1 -6
t-1 -9v-3l-49 -1l-2 -10q0 -3 2 -9z" />
    <glyph glyph-name="t" unicode="t" horiz-adv-x="101" 
d="M40 0q-4 -4 -6 4l-2 1l-2 -1q-6 0 -6 21q-2 18 0 47h-3q-5 0 -8 5q-6 0 -7 5q-2 8 -2 10q0 4 1 6l1 6q2 5 7 5l11 1l3 46q0 8 17 8q13 0 15 -6q9 -1 9 -8l-2 -39h9q4 0 7 -4v-1h1q4 0 7 -4q4 -8 2 -22q0 -6 -6 -6l-20 -1l-1 -35v-2h15q4 0 7 -4v-1h1q4 0 7 -4q3 -6 1 -22
q0 -4 -5 -6q-15 -3 -38 -2zM59 8q17 0 23 2l1 10q0 6 -2 10h-16h-3q-6 0 -10 1l-1 16l1 37l26 1l1 8q0 6 -3 12l-24 -1l2 51q0 3 -10 3q-11 0 -11 -2l-3 -52l-18 -1l-1 -6q-1 -2 -1 -5t2 -9l18 1l-1 -33l1 -26q0 -14 2 -16q10 -1 27 -1z" />
    <glyph glyph-name="u" unicode="u" horiz-adv-x="124" 
d="M74 -2l-2 2h-2q0 -1 -1.5 -1t-2.5 -1q-16 -3 -26 -3t-13 1q-5 2 -8 5q-11 3 -13 18q-2 18 -2 50l1 23q0 5 1 6q2 3 4 4q6 2 11 2q15 0 19 -6q6 -2 8 -5q1 -2 1 -6q0 -10 -1 -13l-1 -4q0 -5 -1 -7v-10q0 -14 1 -19l5 2l5 1l3 1q2 0 3 1q-2 5 -2 11v15v29q-1 4 3 7l9 2
q2 1 5 1q11 0 14 -6q9 -2 9 -9q1 -5 1 -23v-31l3 -1q3 -1 3 -3l1 -1l4 -1q3 -1 3 -3q2 -2 4 -11q1 -5 -1 -13q-1 -2 -4 -4q-1 -1 -5 -1l-18 -2q-2 -1 -9 -1q-3 0 -9 4zM83 6h1l21 2q1 1 1 6t-1 9t-2 6l-15 -2v44q0 23 -1 24q-1 3 -10 3l-11 -3q1 -10 1 -30v-31
q-1 -1 -2.5 -1t-2.5 -1l-8 -2q-11 -3 -15 -2q-4 0 -4 1q-3 5 -3 29q0 10 1 14q0 6 1 9t1 13q-1 4 -14 4q-8 0 -10 -2l-1 -27q0 -35 2 -49q2 -12 9 -13q1 -1 11 -1q7 0 35 5v-1q5 -5 8 -5q6 0 8 1z" />
    <glyph glyph-name="v" unicode="v" horiz-adv-x="114" 
d="M58 -1q-5 0 -11 2q-5 2 -6 4l-2 1q-5 2 -6 5l-28 75q-1 3 -1 7q2 5 3 5l2 1v0l8 4q7 3 14 3q4 0 6 -5h2q4 0 6 -5l11 -31l13 36q2 5 6 5q5 0 11 -2q5 -2 7 -4l4 -2l4 -3l6 -4q5 -3 2 -8l-29 -77q-2 -5 -8 -5q-10 -2 -14 -2zM51 10q5 0 15 2l30 79l-9 6q-7 3 -12 3
l-23 -61l-21 61q-5 0 -12 -3l-6 -3l-4 -2l30 -80q8 -2 12 -2z" />
    <glyph glyph-name="w" unicode="w" horiz-adv-x="170" 
d="M118 -1q-6 0 -12 2q-5 2 -6 4l-2 1q-5 2 -6 5l-6 15l-6 -20q-2 -5 -6 -5q-12 -2 -15 -2q-6 0 -12 2q-5 2 -6 4l-2 1q-5 2 -6 5l-29 75q-2 5 4 8l11 5q7 3 14 3q4 0 6 -5h2q4 0 6 -5l9 -25l6 23l3 7q2 5 6 5q3 1 10 1t10 -1q4 0 6 -5h2q4 0 6 -5l9 -26l10 31q2 5 6 5l6 -1
q3 0 5 -1q4 0 7 -1l5 -3l1 -1l2 -1l5 -3l1 -1l4 -5q0 -4 -1 -7l-26 -72q-2 -5 -8 -5q-10 -2 -13 -2zM51 10q5 0 15 2l15 47l17 -47q8 -2 12 -2q5 0 15 2l28 77l-4 2l-6 3l-13 2l-18 -58l-21 58q-3 1 -10 1q-6 0 -10 -1l-3 -8l-15 -50l-20 58q-4 0 -12 -3l-11 -5l29 -76
q8 -2 12 -2z" />
    <glyph glyph-name="x" unicode="x" horiz-adv-x="115" 
d="M35 -2l-4 2l-6 3l-1 1l-0.5 0.5l-0.5 0.5l-6 3q-7 7 -8 11q-2 5 1 8l22 27l-25 25q-3 2 -3 5q0 4 8 12q2 3 8 7l2 2h4q4 -1 7 -4l2 -2q3 0 6 -3l14 -13l17 22q4 4 9 1l5 -4l3 -1l8 -6q7 -4 10 -11q2 -5 -1 -8l-20 -25l22 -22q3 -4 3 -8q0 -3 -2 -9l-5 -5q-4 -4 -10 -6
q-5 -3 -8 2l-3 2q-2 0 -5 3l-15 14l-17 -19q-3 -4 -7 -4h-4l1 -1h-1zM56 38l27 -27q6 2 11 7q3 5 3 10l-27 28l24 30q-2 5 -8 9l-9 6l-23 -29l-28 28l-10 -8q-5 -5 -6 -8l30 -30l-26 -32q2 -5 7 -9l5 -3q1 -1 2.5 -1t2.5 -1z" />
    <glyph glyph-name="y" unicode="y" horiz-adv-x="109" 
d="M19 -37h-2q-4 0 -6 6q-1 3 -1 9q0 9 5 16q2 3 5 3q4 0 9.5 -1t9.5 0h9q2 1 7 1h2l5 1l1 12q-18 -2 -24 -2q-10 0 -13 1q-1 0 -8 5q-10 3 -12 18q-1 3 -1 11q-1 3 -1 14l1 36q0 5 2 7q2 3 14 3q16 0 18 -6q9 -1 9 -9v-6q0 -6 -1 -10q-1 -2 -1 -22v-3h1l10 3q3 2 6 0l-1 11
l-2 30v2q0 11 20 11q5 0 11 -2q3 -1 4 -4l4 -1q2 -1 4 -4q1 -1 1 -6l1 -63q0 -28 -2 -46q-2 -15 -13 -18q-3 -1 -12 -1q-6 -1 -22 -1q-4 -1 -14 -1q-11 0 -17 1q-4 0 -6 5zM34 -32q10 0 14 1q16 0 21 1q10 0 11 1q7 1 9 13q2 14 2 45l-1 67q-2 2 -10 2q-13 0 -14 -4l2 -33
q1 -9 1 -24v-19q0 -21 -3 -25q0 -1 -4 -1q-3 -1 -10 -1q-4 -1 -13 -1h-7q-8 0 -12 1q-4 -4 -4 -13q0 -6 1 -9q6 -1 17 -1zM63 22q1 3 1 9q0 10 -4 14l-10 -3q-2 -1 -11 -1q-4 0 -4 1q-3 5 -3 13q0 21 1 24t1 8v6q0 4 -13 4q-9 0 -10 -1l-1 -39q0 -10 1 -13q0 -8 1 -11
q1 -12 8 -13q1 -1 11 -1q13 0 32 3z" />
    <glyph glyph-name="z" unicode="z" horiz-adv-x="119" 
d="M23 -6q-4 2 -5 4l-3 1q-10 4 -11 22q0 4 3 7l39 41l-22 -1q-4 0 -6 5h-2q-4 0 -6 5l-1 8q0 11 1 15q1 2 4 4q1 1 6 1l45 1q4 0 6 -1q3 -1 4 -4l3 -1l1 1q2 3 5 3q7 0 16 -7q10 -4 15 -16q0 -5 -3 -8l-41 -42l19 1q4 0 6 -1q3 -1 4 -4l4 -1q3 -1 4 -4q2 0 2 -7q1 -2 1 -6
l-1 -9q-1 -6 -6 -6l-75 -2q-5 0 -6 1zM96 6q1 10 0 17l-2 4l-52 -2l59 59q-3 12 -17 15l-74 -76q1 -16 8 -19zM56 80q10 7 15 17l-2 4l-53 -1q-1 -1 -1 -14l1 -7z" />
    <glyph glyph-name="uni54C1" unicode="&#x54c1;" 
d="M43 -11q-9 0 -12 11q-1 13 -1 34q-1 9 -1 21q0 9 1 12v1q0 5 1 6q2 3 4 4q8 2 15 2q6 0 12 -2q2 2 5 2l39 2q8 0 13 -8l5 -1l1 2q2 3 4 4q8 2 15 2q6 0 12 -2q2 2 5 2l38 2q8 0 13 -8q6 0 9.5 -4t3.5 -11q1 -6 1 -19v-44q0 -5 -1 -6q-2 -3 -3 -4q-4 -3 -17 -3q-3 0 -9 2
h-1q-2 -2 -5 -2l-41 -2q-7 0 -12 8q-3 0 -5 1v-1q-2 -3 -3 -4q-4 -3 -17 -3q-3 0 -9 2l-2 1q-1 -3 -5 -3l-41 -2q-7 0 -12 8zM84 -3l1 12q0 7 -2 9l-23 -2l-1 56q0 2 -9 2q-12 0 -14 -2v-6q-1 -2 -1 -11q0 -12 1 -21q0 -20 1 -33q2 -6 6 -6zM85 40l-3 3q-3 3 -3 4h-2l1 -23
h2q4 0 6 -1zM115 0v48q0 13 -1 18q0 10 -8 10l-39 -2q-2 -15 -1 -16t1 -3l1 -2l23 1l1 -55q2 -2 8 -2q12 0 15 3zM178 -2l1 12q0 6 -2 8l-23 -2l-1 57q0 2 -9 2q-12 0 -14 -2v-6q-1 -2 -1 -11q0 -12 1 -21q0 -20 1 -33q2 -6 6 -6zM174 24h5l-1 19l-2 2q-3 3 -3 4h-2l1 -25h2
zM208 1v48q0 13 -1 18q0 10 -8 10l-38 -2q-2 -14 -1 -15t1 -3l1 -2l22 1l1 -56q2 -2 8 -2q12 0 15 3zM140 98v10q0 11 -1 12l-48 -2l-1 58q0 2 -9 2q-11 0 -13 -2v-6q-1 -2 -1 -11q0 -15 1 -24q0 -20 1 -33q2 -6 6 -6zM75 90q-9 0 -12 11q-1 13 -1 34q-1 9 -1 24q0 9 1 12v1
q0 5 1 6q2 3 4 4q8 2 14 2t12 -2q2 2 5 2l62 2q9 0 12 -8q7 0 10.5 -4.5t3.5 -11.5q1 -6 1 -19v-46q0 -5 -1 -6q-2 -3 -3 -4q-4 -3 -17 -3q-3 0 -9 2q-2 -2 -5 -2l-65 -2q-7 0 -12 8zM135 126q3 0 5 -1l-1 20l-18 -1q-5 0 -8 4q-3 3 -3 4h-2l1 -27zM169 101v50q0 13 -1 18
q0 11 -8 11l-62 -2q-2 -14 -1 -15t1 -3l1 -2l46 1l1 -59q2 -2 8 -2q12 0 15 3z" />
    <glyph glyph-name="uni597D" unicode="&#x597d;" 
d="M188 -24q-5 2 -7 5l-5 3q-5 2 -8 6l-1 4v14v24q-22 0 -34 2q-3 0 -6 3l-2 4l-4 1q-3 0 -6 3q-2 4 -2 6v2q0 23 14 23h13h18h3q-1 2 -1 5l-3 9q0 4 -3 8q-1 2 -1 7q0 6 6 10q12 9 20 20l5 6h-5q-20 0 -51 -3q-5 0 -8 4l-1 5l-3 -1q-5 0 -8 4l-3 10q-1 8 0 12q2 5 7 5l33 3
q10 1 23 1q42 0 52 -13q10 -3 13 -10q3 -4 3 -10q0 -10 -6 -19l-2 -4l-6 -9q-2 -4 -5.5 -7.5t-4.5 -5.5l-9 -9l-2 -3l2 -5l3 -7l1 -4v-1h11h3q5 0 6 -1q4 -1 6 -7q5 0 6 -1q7 -3 7 -18q0 -11 -5 -16q-2 -2 -7 -2l-20 1v-3v-5l1 -7l1 -12q0 -21 -6 -27q-4 -4 -10 -4
q-7 0 -12 4zM47 64q0 3 9 41l22 -3q-11 -27 -18 -51q-13 9 -13 13zM60 -12l11 25q11 -6 22 -8q6 4 6 16l-1 6l-6 3q-1 0 -12 7l4 10l3 10l15 42l17 -2q5 3 5 12q0 8 -3 8q-1 1 -5 1q-5 0 -8 1l3 9v5q0 4 -11 4q-10 0 -10 -2l-4 -13l-11 2q-8 0 -12 1h-2l6 22q1 9 5 18
q-8 8 -13 8t-6 -1q-3 -7 -7 -21q-3 -6 -4.5 -12t-3.5 -11h-18l-3 -6l-2 -9v-3l17 -3v-1l-1 -2q-10 -43 -10 -49q0 -11 26 -28l4 -3q-6 -18 -9 -33l5 -3l8 -2q3 0 5 2zM61 -27h-1q-1 1 -3 1.5t-3 1.5l-3 2l-3 3q-1 1 -3 1.5t-3 1.5l-3 2q-2 2 -2 5q0 8 7 31q-29 19 -29 33
q0 9 8 42q-2 2 -2 4v2l-7 1q-5 2 -5 5v4l1 8l1 3q4 9 8 10h15q0 2 2 6l4 13q4 14 8 22q1 4 11 4q7 0 16 -9q4 -1 13 -8q2 -4 1 -8l-4 -16l2 3q3 2 13 2q16 0 17 -8q12 -2 12 -10v-7v0v-2q4 0 6 -1q7 -1 7 -14q0 -12 -7 -16q-2 -2 -7 -2l-10 1l-13 -37l-2 -5l-1 -5l-2 -4
q3 -1 3 -4l3 -1l5 -3q1 -1 4 -3l1 -5l1 -4v0q0 -13 -7 -20l-5 -2q-7 0 -19 6q-5 -7 -11.5 -13t-7.5 -8q0 -4 -3 -4zM194 -12q4 4 4 23l-1 14q-1 3 -1 10q0 6 -1 9l30 -1q3 3 3 12q0 12 -4 13h-6q-10 0 -17 1h-9v3l-1 2l-4 15l-6 11l6 6l8 9q7 7 10 12l8 13q8 14 3 23
q-7 12 -48 12q-13 0 -22 -1l-35 -3q-1 -4 0 -10l3 -9q33 3 53 3q22 0 25 -3v-3q0 -9 -8 -18q-9 -12 -22 -21q-5 -3 -2 -10l3 -9l3 -9l2 -12h-28q-16 0 -17 -1q-4 -3 -4 -16v-5q4 -1 52 -3q1 -1 1 -6l2 -34l-1 -11q1 -3 6 -5q5 -3 9 -3t6 2z" />
    <glyph glyph-name="uni6781" unicode="&#x6781;" 
d="M166 -19l-5 4q-3 1 -4.5 2t-2.5 2q-9 7 -11 12q-2 3 1 8l12 13l-2 1q-3 1 -4 4l-5 3l-8 -38l-2 -5q-2 -2 -4 -3t-9 -1q-11 0 -18 5l-2 4q-8 2 -10 4l-1 2q-10 -4 -15 -4q-6 0 -12 3q-4 2 -4 6q-2 0 -8 2q-4 3 -4 7v9l-3 -1h-3q-10 0 -18 9q-8 2 -14 11q-3 3 -1 8l17 29
q3 4 7 4q6 0 12 -3l-1 22l-12 1q-5 0 -7 5l-1 2l-4 1q-5 0 -7 5q-2 6 -2 10q0 8 4 13q3 4 8 4l19 -2l-2 30q0 4 3 7q8 6 16 6t12 -2t4 -6q2 0 8 -2q4 -3 4 -7l1 -29l10 -1q6 0 7 -4l1 -4h4q3 0 6 -3l1 8l2 5q2 3 4 3q2 1 6 1q2 0 2 1q11 0 18 -7l2 -2q9 -5 11 -7l2 4l6 13
l-52 1q-4 0 -6 6v2h-6q-4 0 -6 6l-1 8q-1 1 -1 3l1 4l1 6q2 5 7 5l90 -1q5 0 7 -1q4 -4 5 -7q5 0 7 -1q6 -4 6 -15q0 -17 -7 -32l-6 -13h6q7 0 12.5 -1t6.5 -5v-2q11 0 12 -6l1 -2l1 -8q0 -14 -18 -49l-3 -5l-3 -5l-2 -4l7 -4q4 -2 5 -4l7 -4q5 -2 5 -7q0 -2 -2 -8v-3
q-1 -5 -9 -12q-5 -3 -9 -1l-25 14l-5 -8q-4 -4 -5 -6l-4 -4q-3 -4 -7 -4q-7 0 -14 5zM50 64q-5 11 -18 11l-18 -31q8 -11 19 -10zM97 33l-2 1v-9zM64 9q7 0 14 4l-2 40l17 -10q9 5 9 18l-20 10q-5 -5 -7 -13l-2 52l24 -2q4 4 4 12q0 6 -2 9l-28 2l-2 43q-3 2 -10 2
q-8 0 -13 -5l2 -38l-27 2q-4 -5 -4 -11q0 -3 2 -9l30 -3l5 -101q3 -2 10 -2zM109 94h-2l-16 1l1 -22l12 -6zM118 -2l28 132q-4 4 -12 6q-2 -1 -5 -1q-4 0 -5 -1l-28 -133q4 -4 14 -4q7 0 8 1zM180 54l14 21l-16 -3q-1 -1 -4 -1q-4 0 -10 6l-2 2q-2 0 -6 2l-5 -23l2 1
q4 1 8 -1l16 -8zM179 2l9 11l30 -16q7 7 8 10q2 8 2 10l-28 14q3 3 7 11l6 10q17 32 17 46l-2 9q-1 1 -13 1h-17l-15 -2q3 4 7 14l7 17q7 15 7 30q0 9 -4 10l-94 1l-2 -9l2 -11l74 -2q-1 -11 -11 -29q-3 -7 -9 -17t-8 -12v-2q0 -3 4 -7q6 -5 7 -4q8 4 31 4q9 0 10 -1
q5 -5 -19 -38l-6 -8l-23 12q-4 -1 -7 -7q-4 -6 -5 -10l22 -12q-10 -14 -18 -21q3 -6 10 -10q4 -4 11 -4z" />
    <glyph glyph-name="uni7269" unicode="&#x7269;" 
d="M197 -3q-12 2 -12 9l2 19l-11 -19q-4 -4 -8 -4q-13 0 -20 9q-9 3 -12 8q-10 3 -15 9q-11 3 -14 13v0h-2v-31q0 -4 -4 -7q-10 -4 -14 -4q-8 0 -13 6q-2 2 -2 3q-7 0 -10 5q-3 3 -3 7v8h-1q-5 -2 -8 2q-2 1 -4 6q-5 -2 -8 2q-9 9 -6 22q1 4 6 6l6 2q-10 0 -15 9v0
q-8 2 -12 8q-2 3 -1 7l15 60q2 5 5 6q2 1 7 1q9 0 17 -7v3q0 4 4 7q6 3 12 3t14 -4l4 -5q2 0 8 -3q4 -3 4 -8v-17q5 0 6 -3l27 50q3 4 7 4q15 0 21 -9q8 -3 13 -9v0q13 0 20 -1q5 0 8 -1q6 -3 14 -9v0q7 -3 12 -8q5 -7 7 -21q0 -17 -3 -59l-6 -67q0 -8 -17 -6q-17 0 -18 8z
M59 73v3v0l-1 -3h1zM87 53l24 7q1 2 1 6q0 7 -7 15l-18 -6l1 26h19q2 3 2 10t-2 11h-19v33q-5 4 -12 4q-5 0 -10 -3v-35h-16l7 26q-11 9 -20 5l-16 -63q4 -7 11 -7q3 0 9 2l4 17h21l-1 -32l-27 -9q-1 -2 -1 -5q0 -8 6 -14l22 6v-29q5 -5 10 -5q4 0 12 4v36zM162 87
q-6 10 -17 10l-33 -53q3 -11 18 -11zM136 94q-6 2 -9 5q0 -2 -2 -8q-3 -4 -7 -4h-12v0q3 0 4 -3q2 -2 4 -6q5 2 8 -2l2 -2zM189 70q-4 10 -17 10l-33 -53q3 -11 19 -11zM214 4q2 8 6 66t3 61q-2 9 -6 15q-5 5 -14 8q-8 1 -23 1q-14 0 -21 -1l5 9q-4 10 -19 10l-31 -56
q8 -12 20 -9l12 21q26 5 43 3q3 -1 4.5 -2t2.5 -2l3 -8v-12l-2 -30l-6 -72q0 -3 12 -3q11 -2 11 1zM191 78q1 9 1 21l1 9v10q-19 0 -31 -2l-8 -14q8 -4 10 -8q6 -1 13 -8q10 -2 14 -8v0z" />
  </font>
</defs>
</svg>
